<svg xmlns="http://www.w3.org/2000/svg" width="22.962" height="26.632" viewBox="0 0 22.962 26.632">
  <path id="境川水系" d="M.345,1.655A.771.771,0,0,1,.7,1.482c.151,0,.783.46,1.006.5a2.1,2.1,0,0,0,.56-.144s.338.2.4.223A8.329,8.329,0,0,1,5.409,3.3c1,.812,3.326,2.55,3.326,2.55a.708.708,0,0,0,.646.2c.194.259,1.954,3.268,1.954,3.268a1.033,1.033,0,0,0,.884,0,4.776,4.776,0,0,1,.065.5l.869,1.7.7.618a1.538,1.538,0,0,0,.165.747c-.158.309-.237.46-.237.46v2.88a.541.541,0,0,1,.215.51,5,5,0,0,0-.151,1.947c.259.165.567.165.6.517.295.237.474.3.445.5s-.532.445-.532.445-.654.007-.108.488c.129.4.158.374.057.453a7.462,7.462,0,0,0-.769.093s-.33-.029.244.941c.1.259.05.374.467.517s1.02.374,1.07.7c-.007.28-.8.869-.8.869s.4.208.259.4a1.745,1.745,0,0,0-.122.769,3.3,3.3,0,0,1,.295.833c-.022.172.589-.33.589-.33s.6-.6.5-.934c.079-.223.474-.409,1.049.036a5.8,5.8,0,0,1,.33.553,1.135,1.135,0,0,0,1.271-.467c.424-.718.287-.912.582-.919s.352.136.5.122a1.094,1.094,0,0,0,.711-.5c.251-.022,1.473.079,1.587-.086a4.428,4.428,0,0,0,.144-1.106s.388-.23,0-.46c.144-.3.481-.4.122-.675a6.6,6.6,0,0,1-1.178-.524s.043-.316-.409-.323a4,4,0,0,1-.345-.244s.625-.445.208-.9c.316-.057,1.113-.417.869-.905.23-.539.51-1.7-.115-2.133a4.919,4.919,0,0,0-.259-1.027s-.453-.136-.668,0c-.33-.108-.352-.338-.266-.46s-.014-.266-.251-.129c-.259-.1-.33-.46-.84-.251-.158.165-.316.251-.553.05s-.309-.532-.812-.237c-.237-.072-.575-.18-.7.115-.18.108-.237.036-.251-.251s-.374-2.543-.718-2.744-.56-.129-.69-.826a1.178,1.178,0,0,0-.84-1.02c-.172-.409-.575-2.047-1.156-2.457-.388-.237-.869-1.53-1.236-1.659-.381-.022-.646.208-1.135-.848-.366-.718-.18-.819-.575-.948-.374-.417-.46-.8-.869-.8-.409-.28-.488-.3-.539-.445s.172-.093-.144-.093c-.251-.05-.2-.259-.23-.287a2.542,2.542,0,0,0-2.22-.711c-.1-.194-.108-.338-.726-.33C5.682.965,5.689.8,5.409,1,5.172.814,4.827.319,4.217.448a9.619,9.619,0,0,1-1.983,0S2.306.024,1.954,0,.963.082.862.506C.561.513.8.549.388.843s-.481.524-.273.769C.295,1.684.345,1.655.345,1.655Z" transform="matrix(1, 0.017, -0.017, 1, 0.458, 0)" fill="#fff"/>
</svg>
