<svg xmlns="http://www.w3.org/2000/svg" width="22.155" height="17.724" viewBox="0 0 22.155 17.724">
  <path id="city-solid" d="M16.616,6.647h3.877a1.662,1.662,0,0,1,1.662,1.662v7.754a1.662,1.662,0,0,1-1.662,1.662H1.662A1.662,1.662,0,0,1,0,16.063V4.985A1.662,1.662,0,0,1,1.662,3.323h.554V.831a.831.831,0,0,1,1.662,0V3.323H6.093V.831a.831.831,0,1,1,1.662,0V3.323H9.97V1.662A1.662,1.662,0,0,1,11.632,0h3.323a1.662,1.662,0,0,1,1.662,1.662Zm3.323,6.093a.556.556,0,0,0-.554-.554H18.278a.556.556,0,0,0-.554.554v1.108a.556.556,0,0,0,.554.554h1.108a.556.556,0,0,0,.554-.554ZM8.308,14.4a.556.556,0,0,0,.554-.554V12.739a.556.556,0,0,0-.554-.554H7.2a.556.556,0,0,0-.554.554v1.108A.556.556,0,0,0,7.2,14.4ZM4.431,12.739a.556.556,0,0,0-.554-.554H2.769a.555.555,0,0,0-.554.554v1.108a.555.555,0,0,0,.554.554H3.877a.556.556,0,0,0,.554-.554ZM18.278,8.862a.556.556,0,0,0-.554.554v1.108a.556.556,0,0,0,.554.554h1.108a.556.556,0,0,0,.554-.554V9.416a.556.556,0,0,0-.554-.554ZM8.862,6.093a.556.556,0,0,0-.554-.554H7.2a.556.556,0,0,0-.554.554V7.2a.556.556,0,0,0,.554.554H8.308A.556.556,0,0,0,8.862,7.2ZM2.769,5.539a.555.555,0,0,0-.554.554V7.2a.555.555,0,0,0,.554.554H3.877A.556.556,0,0,0,4.431,7.2V6.093a.556.556,0,0,0-.554-.554ZM8.862,9.416a.556.556,0,0,0-.554-.554H7.2a.556.556,0,0,0-.554.554v1.108a.556.556,0,0,0,.554.554H8.308a.556.556,0,0,0,.554-.554ZM3.877,11.078a.556.556,0,0,0,.554-.554V9.416a.556.556,0,0,0-.554-.554H2.769a.555.555,0,0,0-.554.554v1.108a.555.555,0,0,0,.554.554ZM14.4,9.416a.556.556,0,0,0-.554-.554H12.739a.556.556,0,0,0-.554.554v1.108a.556.556,0,0,0,.554.554h1.108a.556.556,0,0,0,.554-.554Zm-1.662-7.2a.555.555,0,0,0-.554.554V3.877a.556.556,0,0,0,.554.554h1.108a.556.556,0,0,0,.554-.554V2.769a.555.555,0,0,0-.554-.554ZM14.4,6.093a.556.556,0,0,0-.554-.554H12.739a.556.556,0,0,0-.554.554V7.2a.556.556,0,0,0,.554.554h1.108A.556.556,0,0,0,14.4,7.2Z" fill="#fff"/>
</svg>
