<svg xmlns="http://www.w3.org/2000/svg" width="24.74" height="16.494" viewBox="0 0 24.74 16.494">
  <path id="water-solid" d="M23.6,71.422a4.265,4.265,0,0,1-2.024-.872,1.4,1.4,0,0,0-1.931-.017,4.755,4.755,0,0,1-3.167.988,4.789,4.789,0,0,1-3.152-.971,1.4,1.4,0,0,0-1.928-.016,4.755,4.755,0,0,1-3.167.988,4.785,4.785,0,0,1-3.151-.971,1.385,1.385,0,0,0-1.927-.013,4.285,4.285,0,0,1-2.04.885,1.374,1.374,0,1,0,.5,2.7,7.652,7.652,0,0,0,2.5-.912,8.022,8.022,0,0,0,4.125,1.06,8.02,8.02,0,0,0,4.123-1.059,8.025,8.025,0,0,0,4.123,1.056A8.026,8.026,0,0,0,20.6,73.213a7.6,7.6,0,0,0,2.5.913,1.374,1.374,0,0,0,.5-2.7Zm0,6.193a4.265,4.265,0,0,1-2.024-.872,1.4,1.4,0,0,0-1.929-.016,4.783,4.783,0,0,1-3.168.987,4.788,4.788,0,0,1-3.152-.971,1.4,1.4,0,0,0-1.928-.016,4.77,4.77,0,0,1-3.167.988,4.788,4.788,0,0,1-3.152-.971,1.392,1.392,0,0,0-1.928-.015,4.242,4.242,0,0,1-2.04.887,1.373,1.373,0,1,0,.5,2.7,7.616,7.616,0,0,0,2.5-.911,8.033,8.033,0,0,0,4.126,1.057,8.016,8.016,0,0,0,4.121-1.056,8.061,8.061,0,0,0,4.127,1.055,7.742,7.742,0,0,0,4.084-1.057,7.6,7.6,0,0,0,2.5.913,1.377,1.377,0,1,0,.533-2.7ZM1.608,67.939a7.6,7.6,0,0,0,2.5-.913,8.022,8.022,0,0,0,4.125,1.06,8.021,8.021,0,0,0,4.123-1.059,8.025,8.025,0,0,0,4.123,1.056A8.026,8.026,0,0,0,20.6,67.026a7.6,7.6,0,0,0,2.5.913,1.374,1.374,0,1,0,.5-2.7,4.265,4.265,0,0,1-2.024-.872,1.4,1.4,0,0,0-1.929-.016,4.755,4.755,0,0,1-3.167.988,4.789,4.789,0,0,1-3.152-.971,1.4,1.4,0,0,0-1.928-.016,4.756,4.756,0,0,1-3.167.988,4.806,4.806,0,0,1-3.153-.97,1.391,1.391,0,0,0-1.927-.015,4.234,4.234,0,0,1-2.04.887,1.373,1.373,0,1,0,.5,2.7Z" transform="translate(0.015 -63.969)" fill="#fff"/>
</svg>
