<svg xmlns="http://www.w3.org/2000/svg" width="16.552" height="33.5" viewBox="0 0 16.552 33.5">
  <g id="グループ_57" data-name="グループ 57" transform="translate(0 33.5)">
    <path id="パス_206" data-name="パス 206" d="M8.276-33.5S0-19.017,0-12.81C0-8.243,8.276-3.5,8.276-3.5s8.276-4.743,8.276-9.31C16.552-19.017,8.276-33.5,8.276-33.5Z" fill="#fff" fill-rule="evenodd"/>
    <path id="パス_207" data-name="パス 207" d="M8.276-26.145V-.5" fill="#ff97c7" stroke="#ff97c7" stroke-linecap="round" stroke-linejoin="round" stroke-width="1"/>
    <path id="パス_208" data-name="パス 208" d="M12.276-20.5l-4,3" fill="#ff97c7" stroke="#ff97c7" stroke-linecap="round" stroke-linejoin="round" stroke-width="1"/>
    <path id="パス_209" data-name="パス 209" d="M11.276-22.5l-1,3.5" fill="#ff97c7" stroke="#ff97c7" stroke-linecap="round" stroke-linejoin="round" stroke-width="1"/>
    <path id="パス_210" data-name="パス 210" d="M4.276-20.5l4,3" fill="#ff97c7" stroke="#ff97c7" stroke-linecap="round" stroke-linejoin="round" stroke-width="1"/>
    <path id="パス_211" data-name="パス 211" d="M5.276-22.5l1,3.5" fill="#ff97c7" stroke="#ff97c7" stroke-linecap="round" stroke-linejoin="round" stroke-width="1"/>
    <path id="パス_212" data-name="パス 212" d="M12.276-15.768l-4,3" fill="#ff97c7" stroke="#ff97c7" stroke-linecap="round" stroke-linejoin="round" stroke-width="1"/>
    <path id="パス_213" data-name="パス 213" d="M11.276-17.768l-1,3.5" fill="#ff97c7" stroke="#ff97c7" stroke-linecap="round" stroke-linejoin="round" stroke-width="1"/>
    <path id="パス_214" data-name="パス 214" d="M4.276-15.768l4,3" fill="#ff97c7" stroke="#ff97c7" stroke-linecap="round" stroke-linejoin="round" stroke-width="1"/>
    <path id="パス_215" data-name="パス 215" d="M5.276-17.768l1,3.5" fill="#ff97c7" stroke="#ff97c7" stroke-linecap="round" stroke-linejoin="round" stroke-width="1"/>
    <path id="パス_216" data-name="パス 216" d="M12.276-10.457l-4,3" fill="#ff97c7" stroke="#ff97c7" stroke-linecap="round" stroke-linejoin="round" stroke-width="1"/>
    <path id="パス_217" data-name="パス 217" d="M11.276-12.457l-1,3.5" fill="#ff97c7" stroke="#ff97c7" stroke-linecap="round" stroke-linejoin="round" stroke-width="1"/>
    <path id="パス_218" data-name="パス 218" d="M4.276-10.457l4,3" fill="#ff97c7" stroke="#ff97c7" stroke-linecap="round" stroke-linejoin="round" stroke-width="1"/>
    <path id="パス_219" data-name="パス 219" d="M5.276-12.457l1,3.5" fill="#ff97c7" stroke="#ff97c7" stroke-linecap="round" stroke-linejoin="round" stroke-width="1"/>
  </g>
</svg>
